<svg width="24" height="17" viewBox="0 0 24 17" fill="none" xmlns="http://www.w3.org/2000/svg">
<path d="M22.319 0.431008L8.5 14.249C8.40709 14.3423 8.29668 14.4163 8.17509 14.4668C8.05351 14.5173 7.92315 14.5433 7.7915 14.5433C7.65985 14.5433 7.52949 14.5173 7.4079 14.4668C7.28632 14.4163 7.17591 14.3423 7.083 14.249L1.739 8.90001C1.64609 8.80673 1.53568 8.73272 1.41409 8.68222C1.29251 8.63171 1.16215 8.60572 1.0305 8.60572C0.898845 8.60572 0.768487 8.63171 0.646905 8.68222C0.525322 8.73272 0.414909 8.80673 0.321999 8.90001C0.228722 8.99292 0.15471 9.10333 0.104208 9.22491C0.0537066 9.3465 0.02771 9.47685 0.02771 9.60851C0.02771 9.74016 0.0537066 9.87052 0.104208 9.9921C0.15471 10.1137 0.228722 10.2241 0.321999 10.317L5.668 15.662C6.23195 16.2249 6.9962 16.5411 7.793 16.5411C8.5898 16.5411 9.35405 16.2249 9.918 15.662L23.736 1.84701C23.8291 1.75412 23.903 1.64377 23.9534 1.52228C24.0038 1.40079 24.0298 1.27054 24.0298 1.13901C24.0298 1.00747 24.0038 0.877231 23.9534 0.755741C23.903 0.63425 23.8291 0.5239 23.736 0.431008C23.6431 0.337732 23.5327 0.263719 23.4111 0.213217C23.2895 0.162716 23.1592 0.136719 23.0275 0.136719C22.8958 0.136719 22.7655 0.162716 22.6439 0.213217C22.5223 0.263719 22.4119 0.337732 22.319 0.431008Z" fill="#FCFAF7"/>
</svg>
